<?xml version="1.0" encoding="utf-8"?>
<!-- Generator: Adobe Illustrator 24.2.3, SVG Export Plug-In . SVG Version: 6.00 Build 0)  -->
<svg version="1.1" id="Layer_1" xmlns="http://www.w3.org/2000/svg" xmlns:xlink="http://www.w3.org/1999/xlink" x="0px" y="0px"
	 viewBox="0 0 400 400" style="enable-background:new 0 0 400 400;" xml:space="preserve">
<style type="text/css">
	.st0{fill:#2D2A26;}
	.st1{fill:#FFFFFF;}
	.st2{fill:#F6B318;}
</style>
<g>
	<path class="st0" d="M17.14,252.95l-9.08-64.63c-1.97-14.05,5.88-24.47,19.93-26.44c13.91-1.95,24.49,6.02,26.44,19.93l1.78,12.65
		l-16.86,2.37l-1.94-13.77c-0.53-3.79-3.42-5.97-7.21-5.44c-3.8,0.53-5.97,3.42-5.44,7.22l9.4,66.87c0.53,3.8,3.42,5.97,7.21,5.44
		c3.79-0.53,5.97-3.42,5.44-7.21l-1.94-13.77l16.86-2.37l1.78,12.64c1.97,14.05-5.88,24.46-19.93,26.44
		C29.68,274.83,19.1,266.86,17.14,252.95"/>
	<polygon class="st0" points="55.68,160.14 72.54,157.77 78.93,203.29 91.58,201.51 85.18,155.99 102.04,153.62 117.05,260.4 
		100.19,262.77 93.79,217.25 81.15,219.02 87.54,264.55 70.68,266.92 	"/>
	<path class="st0" d="M121.81,238.24l-12.04-85.71l16.86-2.37l12.2,86.83c0.53,3.8,3.42,5.97,7.21,5.43
		c3.8-0.53,5.97-3.42,5.44-7.21l-12.2-86.83l16.86-2.37l12.05,85.7c1.97,14.05-5.88,24.47-19.93,26.44
		C134.34,260.12,123.76,252.15,121.81,238.24"/>
	<path class="st0" d="M163.86,144.93l23.18-3.26c13.91-1.95,24.49,6.02,26.44,19.93l2.96,21.07c1.26,8.99-1.54,16.55-7.47,21.25
		l35,76.4l-17.56,2.47l-33.54-73.17l-2.67,0.37l5.53,39.34l-16.86,2.37L163.86,144.93z M194.31,193.38c3.8-0.53,5.97-3.42,5.44-7.21
		l-3.28-23.32c-0.53-3.8-3.42-5.97-7.21-5.44l-6.32,0.89l5.05,35.97L194.31,193.38z"/>
	<path class="st0" d="M228.59,223.23l-9.08-64.63c-1.97-14.05,5.88-24.47,19.93-26.44c13.91-1.95,24.49,6.02,26.44,19.93l1.78,12.64
		l-16.86,2.37l-1.94-13.77c-0.53-3.79-3.42-5.97-7.21-5.43c-3.8,0.53-5.97,3.42-5.44,7.21l9.4,66.88c0.53,3.8,3.42,5.97,7.21,5.44
		c3.79-0.53,5.97-3.42,5.43-7.21l-1.93-13.77l16.86-2.37l1.78,12.64c1.97,14.05-5.88,24.47-19.93,26.44
		C241.11,245.11,230.54,237.14,228.59,223.23"/>
	<polygon class="st0" points="267.12,130.42 283.98,128.05 290.37,173.57 303.02,171.79 296.62,126.27 313.49,123.9 328.49,230.68 
		311.63,233.05 305.23,187.53 292.59,189.31 298.98,234.83 282.13,237.2 	"/>
	<path class="st0" d="M341.15,208.31l-1.78-12.64l16.86-2.37l1.94,13.77c0.53,3.8,3.42,5.97,7.21,5.44c3.8-0.53,5.97-3.42,5.44-7.21
		l-1.14-8.15c-2.47-17.57-32.77-19.04-36.42-45.03l-1.19-8.43c-1.97-14.05,5.88-24.46,19.93-26.44
		c13.91-1.96,24.49,6.01,26.44,19.93l1.78,12.64l-16.86,2.37l-1.94-13.77c-0.53-3.79-3.42-5.97-7.21-5.44
		c-3.8,0.53-5.97,3.42-5.44,7.21l1.15,8.15c2.45,17.42,32.76,19.03,36.41,45.03l1.19,8.43c1.97,14.05-5.88,24.47-19.93,26.44
		C353.67,230.18,343.1,222.22,341.15,208.31"/>
	<polygon class="st0" points="130.85,296.29 121.26,297.64 120.85,294.72 123.64,294.16 121.36,277.93 118.02,278.4 118.37,281.99 
		115.67,282.37 114.72,275.56 131.05,273.26 132,280.08 129.31,280.45 128.66,276.91 125.32,277.38 127.6,293.6 130.44,293.37 	"/>
	<polygon class="st0" points="146.56,285.81 146.15,283.95 141.9,284.55 142.85,291.3 148.45,290.51 148.22,287.76 150.92,287.38 
		151.75,293.36 137.03,295.42 136.62,292.5 138.92,292.05 136.61,275.59 134.27,275.79 133.86,272.87 148.58,270.79 149.4,276.61 
		146.7,276.99 146.19,274.44 140.59,275.23 141.48,281.53 145.73,280.93 145.62,279.06 148.05,278.72 149,285.47 	"/>
	<polygon class="st0" points="164.87,288.63 166.94,288.24 162.33,282.67 159.64,289.27 161.71,289.08 162.1,291.9 154.59,292.95 
		154.18,290.03 155.79,289.74 159.79,280.34 153.78,273.14 152.19,273.27 151.78,270.35 159.84,269.21 160.23,272.04 158.37,272.4 
		162.59,277.54 165.06,271.46 163.2,271.62 162.8,268.8 170.07,267.78 170.48,270.7 168.91,271.02 165.16,279.85 171.53,287.53 
		173.16,287.37 173.57,290.29 165.27,291.46 	"/>
	<path class="st0" d="M174.91,287.12l1.71-0.34l2.97-20.34l5.51-0.77l8.47,18.73l1.74-0.14l0.41,2.92l-8.18,1.15l-0.39-2.75
		l2.33-0.46l-1.66-3.7l-6.83,0.96l-0.57,4.02l2.39-0.2l0.39,2.75l-7.89,1.11L174.91,287.12z M186.52,278.21l-1.67-3.77
		c-0.8-1.84-1.51-3.53-2.15-5.13l-0.06,0.01c-0.18,1.71-0.4,3.5-0.69,5.5l-0.56,4.11L186.52,278.21z"/>
	<path class="st0" d="M205.61,269.4l-0.6-3.22c-0.53-0.13-1.36-0.11-2.3,0.02c-2.26,0.31-2.97,1.41-2.77,2.84
		c0.23,1.62,1,2.18,4.49,3.44c4.56,1.64,5.82,2.92,6.29,6.26c0.57,4.06-1.37,6.85-6.64,7.59c-1.85,0.26-3.71,0.22-5.48-0.02
		l-0.81-6.18l2.7-0.38l0.58,3.26c0.79,0.15,1.78,0.15,2.81,0c2.41-0.34,3.19-1.57,2.95-3.26c-0.24-1.69-1-2.24-4.7-3.61
		c-4.19-1.53-5.59-2.76-6.08-6.23c-0.51-3.63,1.33-6.31,6.52-7.04c1.82-0.25,3.59-0.21,4.93,0l0.77,6.15L205.61,269.4z"/>
	<path class="st0" d="M260.34,262.51l-0.74-3.97c-0.25-0.03-0.86-0.11-1.64,0c-2.99,0.42-4.32,1.83-3.28,9.26
		c0.93,6.56,2.56,7.55,5.9,7.08c1.26-0.18,2.52-0.59,3.84-1.24l0.91,3.28c-1.46,0.67-3.23,1.25-4.87,1.48
		c-5.63,0.79-8.48-0.96-9.74-9.95c-1.38-9.8,1.35-12.54,6.92-13.32c1.55-0.22,3.05-0.2,4.49,0.03l0.92,6.96L260.34,262.51z"/>
	<polygon class="st0" points="268.17,274.01 270.47,273.56 268.16,257.1 265.82,257.3 265.41,254.38 273.82,253.19 274.24,256.12 
		272.11,256.52 272.97,262.68 280.45,261.63 279.59,255.46 277.43,255.67 277.02,252.74 285.4,251.57 285.82,254.49 283.52,254.94 
		285.83,271.4 288.16,271.2 288.58,274.13 280.19,275.31 279.78,272.38 281.91,271.98 280.95,265.17 273.47,266.22 274.43,273.04 
		276.58,272.83 277,275.75 268.58,276.94 	"/>
	<polygon class="st0" points="291.27,270.77 293.57,270.31 291.26,253.86 288.92,254.05 288.51,251.13 297.1,249.92 297.51,252.85 
		295.22,253.3 297.53,269.76 299.86,269.56 300.27,272.48 291.68,273.69 	"/>
	<path class="st0" d="M312.08,255.23l-0.74-3.97c-0.24-0.03-0.86-0.11-1.64,0c-2.99,0.42-4.32,1.83-3.27,9.27
		c0.92,6.56,2.56,7.55,5.9,7.08c1.26-0.18,2.52-0.58,3.84-1.23l0.91,3.28c-1.46,0.67-3.23,1.25-4.88,1.48
		c-5.63,0.79-8.47-0.96-9.74-9.95c-1.38-9.8,1.34-12.54,6.92-13.32c1.55-0.22,3.05-0.2,4.49,0.03l0.92,6.96L312.08,255.23z"/>
	<polygon class="st0" points="319.91,266.74 322.21,266.29 319.9,249.83 317.56,250.02 317.15,247.11 325.13,245.98 325.53,248.81 
		323.84,249.11 324.9,256.71 329.73,248.32 327.9,248.47 327.5,245.65 335.48,244.53 335.89,247.45 334.32,247.77 329.28,256.36 
		336.97,264.28 338.63,264.12 339.03,267.03 330.76,268.2 330.37,265.37 332.18,265.05 325.04,257.71 326.2,265.9 327.9,265.72 
		328.3,268.54 320.33,269.66 	"/>
	<polygon class="st0" points="351,257.08 350.59,255.22 346.33,255.82 347.28,262.57 352.88,261.78 352.65,259.03 355.35,258.65 
		356.19,264.63 341.47,266.69 341.05,263.77 343.35,263.32 341.04,246.86 338.7,247.06 338.29,244.13 353.01,242.07 353.83,247.88 
		351.13,248.25 350.63,245.71 345.02,246.5 345.91,252.8 350.16,252.2 350.05,250.33 352.48,249.99 353.43,256.74 	"/>
	<path class="st0" d="M359.7,264.13l-0.41-2.92l2.3-0.46l-2.31-16.45l-2.34,0.2l-0.41-2.92l7.53-1.06l7.3,11.06
		c1.26,1.94,2.4,3.9,3.52,6.06l0.09-0.01c-0.52-2.21-1.01-4.6-1.29-6.38l-1.25-8.86l-2.18,0.21l-0.4-2.89l7.71-1.08l0.41,2.92
		l-2.07,0.39l2.75,19.54l-5.16,0.73l-7.33-11.06c-1.26-1.94-2.4-3.89-3.51-6.06l-0.12,0.02c0.52,2.21,1.04,4.59,1.29,6.37l1.25,8.86
		l2.18-0.2l0.41,2.89L359.7,264.13z"/>
	<path class="st1" d="M318.4,132.94l-1.27-9.01c-0.06-0.4,0.22-0.76,0.62-0.82l9.65-1.36c0.4-0.06,0.77,0.22,0.83,0.62l1.24,8.83
		c0.02,0.1,0.01,0.2-0.02,0.3l-2.76,10.11c-0.08,0.28-0.31,0.49-0.6,0.53l-3.29,0.46c-0.49,0.07-0.9-0.35-0.83-0.83l1.18-7.73
		c0.07-0.48-0.32-0.89-0.81-0.83l-3.14,0.37C318.81,133.6,318.45,133.33,318.4,132.94"/>
	<polygon class="st0" points="383.15,111.5 381.12,111.49 381.09,119.24 379.21,119.24 379.25,111.48 377.22,111.48 377.22,109.94 
		383.15,109.97 	"/>
	<polygon class="st0" points="386.78,109.98 388.08,116.54 388.1,116.54 389.47,110 392.24,110.01 392.2,119.29 390.48,119.28 
		390.52,111.87 390.49,111.87 388.81,119.28 387.35,119.27 385.73,111.85 385.71,111.85 385.67,119.26 383.96,119.26 384,109.97 	
		"/>
	<path class="st2" d="M324.57,278.35c-22.75,37.53-61.54,64.91-108.39,71.49c-59.67,8.38-116.09-19.26-147.29-66.35l-38.08,5.35
		c36.06,66.66,110.84,107.25,190.3,96.08c67.53-9.49,121.51-53.99,146.19-112.58L324.57,278.35z"/>
	<path class="st2" d="M53.98,145.4c19.18-49.45,63.83-87.34,120.08-95.24c56.25-7.91,109.61,16.21,141.68,58.45l39.07-5.49
		C317.25,41.27,245.34,4.36,169.13,15.07C92.92,25.78,33.97,81.08,14.91,150.89L53.98,145.4z"/>
	<polygon class="st2" points="191.19,65.41 163.03,125.92 185.66,113.49 204.86,130.76 	"/>
	<polygon class="st2" points="177.4,88.22 154.7,85.63 171.55,100.79 	"/>
	<polygon class="st2" points="199.45,90.76 202.3,104.36 222.24,93.41 	"/>
</g>
</svg>
