<?xml version="1.0" encoding="UTF-8" standalone="no"?>
<!-- Created with Inkscape (http://www.inkscape.org/) -->

<svg
   version="1.1"
   id="svg2"
   xml:space="preserve"
   width="554.66669"
   height="160"
   viewBox="0 0 554.66669 160"
   sodipodi:docname="VTS-Logo_Horizontal_White.eps"
   xmlns:inkscape="http://www.inkscape.org/namespaces/inkscape"
   xmlns:sodipodi="http://sodipodi.sourceforge.net/DTD/sodipodi-0.dtd"
   xmlns="http://www.w3.org/2000/svg"
   xmlns:svg="http://www.w3.org/2000/svg"><defs
     id="defs6" /><sodipodi:namedview
     id="namedview4"
     pagecolor="#ffffff"
     bordercolor="#666666"
     borderopacity="1.0"
     inkscape:pageshadow="2"
     inkscape:pageopacity="0.0"
     inkscape:pagecheckerboard="0" /><g
     id="g8"
     inkscape:groupmode="layer"
     inkscape:label="ink_ext_XXXXXX"
     transform="matrix(1.3333333,0,0,-1.3333333,0,160)"><g
       id="g10"
       transform="scale(0.1)"><path
         d="m 1972.12,915.578 144.9,-462.512 144.91,462.512 h 151 L 2199.45,286.469 h -173.54 l -211.73,629.109 h 157.94"
         style="fill:#ffffff;fill-opacity:1;fill-rule:nonzero;stroke:none"
         id="path12" /><path
         d="m 2840.59,785.406 h -201.32 v 130.172 h 552.74 V 785.406 H 2989.84 V 286.469 h -149.25 v 498.937"
         style="fill:#ffffff;fill-opacity:1;fill-rule:nonzero;stroke:none"
         id="path14" /><path
         d="m 3682.95,807.105 c -57.28,0 -99.79,-21.699 -99.79,-60.73 0,-31.262 29.49,-53.809 72.89,-63.352 l 85.9,-17.351 c 101.53,-20.828 229.96,-52.067 229.96,-183.961 0,-131.895 -132.77,-206.535 -263.79,-206.535 -161.41,0 -267.26,80.711 -289.83,216.078 h 147.52 c 16.48,-65.953 68.54,-96.316 145.78,-96.316 50.32,0 107.6,16.48 107.6,68.546 0,40.774 -48.6,60.75 -117.16,75.489 l -76.36,15.629 c -102.38,21.675 -195.22,70.269 -195.22,183.086 0,128.421 137.96,188.3 261.19,188.3 123.2,0 240.34,-53.808 262.04,-192.648 h -146.65 c -14.76,46.871 -60.73,73.765 -124.08,73.765"
         style="fill:#ffffff;fill-opacity:1;fill-rule:nonzero;stroke:none"
         id="path16" /><path
         d="m 814.137,848.184 207.103,-137.629 153.23,101.398 -360.333,239.457 -0.496,-0.34 -360.442,-239.515 153.215,-101.399 207.227,137.696 0.496,0.332"
         style="fill:#ffffff;fill-opacity:1;fill-rule:nonzero;stroke:none"
         id="path18" /><path
         d="M 813.523,410.227 188.094,802.469 V 540.836 l 625.429,-392.234 0.118,0.058 625.529,392.285 v 261.653 l -625.529,-392.297 -0.118,-0.074"
         style="fill:#ffffff;fill-opacity:1;fill-rule:nonzero;stroke:none"
         id="path20" /></g></g></svg>
